<svg xmlns="http://www.w3.org/2000/svg" version="1.0" width="660.000000pt" height="315.000000pt" viewBox="0 0 660.000000 315.000000" preserveAspectRatio="xMidYMid meet">

<g transform="translate(0.000000,315.000000) scale(0.100000,-0.100000)" fill="#C1223953" stroke="none">
<path d="M102 3111 c-13 -38 -50 -71 -79 -71 -16 0 -23 -6 -23 -20 0 -24 10 -25 53 -6 43 18 75 55 83 94 9 42 -20 45 -34 3z"/>
<path d="M250 3117 c0 -13 -14 -52 -31 -86 -24 -48 -43 -70 -78 -92 -25 -17 -56 -32 -68 -34 -13 -3 -34 -7 -48 -10 -29 -6 -34 -35 -7 -35 85 0 193 73 238 162 l24 48 291 0 291 0 -7 -52 c-4 -29 -20 -93 -36 -143 -109 -328 -401 -559 -746 -591 -55 -5 -73 -11 -73 -22 0 -38 272 13 393 74 288 145 470 412 502 737 6 63 5 67 -14 67 -14 0 -21 -6 -21 -20 0 -20 -7 -20 -286 -20 -277 0 -286 1 -291 20 -7 28 -33 25 -33 -3z"/>
<path d="M5700 3088 c1 -89 36 -223 88 -332 91 -189 230 -328 417 -417 121 -58 193 -78 308 -86 77 -5 87 -4 87 11 0 12 -9 16 -34 16 -18 0 -73 7 -121 15 -288 50 -530 243 -645 514 -33 77 -60 179 -60 229 l0 32 288 0 287 0 29 -55 c44 -84 120 -139 211 -152 37 -5 45 -3 45 10 0 11 -17 19 -55 27 -75 15 -133 61 -167 130 -15 30 -30 67 -33 83 -6 31 -35 37 -35 7 0 -20 -7 -20 -286 -20 -277 0 -286 1 -291 20 -3 11 -12 20 -19 20 -10 0 -14 -14 -14 -52z"/>
<path d="M6456 3113 c14 -59 51 -95 112 -108 28 -6 32 -4 32 14 0 16 -6 21 -26 21 -31 0 -84 50 -84 79 0 14 -6 21 -20 21 -17 0 -19 -4 -14 -27z"/>
<path d="M3055 2494 c-331 -73 -600 -332 -686 -659 -30 -114 -30 -327 0 -440 85 -319 317 -554 638 -647 67 -20 100 -23 238 -22 144 0 169 3 248 27 316 97 544 340 624 663 25 103 22 314 -6 419 -81 307 -325 556 -631 645 -101 30 -323 37 -425 14z m400 -43 c312 -80 564 -344 631 -659 24 -114 55 -102 -276 -102 l-290 0 -20 40 c-31 60 -78 108 -134 138 -73 38 -179 38 -251 0 -59 -31 -105 -77 -134 -135 l-21 -43 -235 0 c-128 0 -236 3 -238 8 -2 4 2 39 10 77 36 177 151 348 310 461 112 81 231 124 386 139 99 11 83 31 -22 28 -60 -2 -106 -11 -174 -33 -129 -43 -217 -99 -318 -199 -121 -121 -184 -235 -217 -396 -17 -80 -17 -80 -51 -83 l-33 -3 7 53 c10 80 60 222 106 299 132 226 344 375 602 425 95 18 259 11 362 -15z m-146 -597 c102 -30 181 -135 181 -241 0 -79 -50 -169 -117 -209 -90 -54 -176 -54 -265 0 -42 25 -59 43 -85 94 -65 125 -34 238 90 332 18 13 98 38 128 39 8 1 39 -6 68 -15z m-354 -239 l0 -40 -287 -3 -288 -2 0 45 0 45 288 -2 287 -3 0 -40z m1145 0 l0 -45 -287 2 -288 3 -3 28 c-7 59 -18 57 293 57 l285 0 0 -45z m-1116 -123 c65 -129 201 -188 340 -148 69 20 137 78 172 148 l24 48 291 0 291 0 -7 -52 c-20 -152 -113 -343 -224 -461 -114 -121 -268 -212 -426 -253 -97 -25 -313 -25 -410 0 -322 84 -573 344 -641 665 -24 113 -55 101 276 101 l290 0 24 -48z"/>
<path d="M3185 1746 c-16 -7 -41 -26 -55 -41 -21 -22 -25 -36 -25 -90 0 -57 3 -67 30 -95 60 -63 150 -63 210 0 27 28 30 38 30 95 0 54 -4 68 -25 90 -47 51 -108 66 -165 41z m124 -52 c77 -65 33 -184 -69 -184 -51 0 -84 22 -101 68 -26 67 28 142 101 142 27 0 48 -8 69 -26z"/>
<path d="M0 871 c0 -19 6 -21 58 -21 74 0 204 -32 287 -69 158 -72 313 -211 399 -358 48 -80 98 -221 110 -306 l7 -47 -293 0 -293 1 -18 38 c-25 54 -82 109 -141 137 -59 28 -116 32 -116 9 0 -8 8 -15 18 -15 44 0 115 -35 157 -77 34 -33 50 -60 63 -104 9 -32 23 -59 30 -59 6 0 12 7 12 15 0 13 39 15 290 15 251 0 290 -2 290 -15 0 -9 9 -15 21 -15 20 0 21 4 14 63 -24 222 -99 386 -249 545 -150 158 -350 254 -578 277 -65 7 -68 6 -68 -14z"/>
<path d="M6415 873 c-382 -81 -672 -408 -709 -800 -7 -69 -6 -73 13 -73 14 0 21 6 21 20 0 20 7 20 286 20 277 0 286 -1 291 -20 7 -27 33 -25 33 3 0 40 46 122 90 160 40 34 68 47 133 61 16 4 27 13 27 22 0 14 -7 15 -41 10 -90 -14 -176 -79 -218 -164 l-21 -42 -235 0 c-128 0 -236 3 -238 8 -2 4 2 39 10 77 36 177 151 348 310 461 109 78 226 121 376 139 42 5 57 10 57 22 0 24 -135 9 -245 -28 -127 -42 -216 -98 -316 -198 -121 -121 -184 -235 -217 -396 -17 -80 -17 -80 -51 -83 l-33 -3 7 53 c10 80 60 222 106 299 144 248 392 406 678 435 50 5 71 11 71 20 0 19 -92 17 -185 -3z"/>
<path d="M0 764 c0 -8 5 -12 10 -9 6 3 10 10 10 16 0 5 -4 9 -10 9 -5 0 -10 -7 -10 -16z"/>
<path d="M6545 126 c-41 -18 -73 -56 -81 -94 -5 -25 -3 -32 10 -32 8 0 18 11 22 25 7 30 58 75 85 75 12 0 19 7 19 20 0 23 -13 25 -55 6z"/>
<path d="M0 118 c0 -7 18 -20 40 -30 27 -11 45 -27 57 -52 17 -37 43 -49 43 -20 0 9 -9 31 -20 49 -29 47 -120 87 -120 53z"/>
</g>
</svg>