<?xml version="1.0" standalone="no"?>
<!DOCTYPE svg PUBLIC "-//W3C//DTD SVG 20010904//EN"
 "http://www.w3.org/TR/2001/REC-SVG-20010904/DTD/svg10.dtd">
<svg version="1.0" xmlns="http://www.w3.org/2000/svg"
 width="1020.000000pt" height="430.000000pt" viewBox="0 0 1320.000000 630.000000"
 preserveAspectRatio="xMidYMid meet">

<g transform="translate(0.000000,630.000000) scale(0.100000,-0.100000)"
fill="##C1223977" stroke="none">
<path d="M207 6259 c-11 -82 -85 -155 -167 -166 -39 -5 -40 -7 -40 -44 0 -35
3 -39 25 -39 49 0 131 40 178 87 47 47 87 129 87 178 0 22 -4 25 -39 25 -37 0
-39 -1 -44 -41z"/>
<path d="M491 6225 c-35 -213 -203 -381 -416 -416 l-75 -12 0 -33 c0 -33 1
-34 43 -34 186 0 399 151 483 344 l28 66 582 0 582 0 -5 -42 c-64 -542 -394
-1034 -871 -1302 -234 -131 -532 -216 -758 -216 l-84 0 0 -42 0 -41 102 7
c401 26 754 167 1057 422 380 319 604 766 637 1272 l7 102 -41 0 -42 0 0 -40
0 -40 -575 0 -575 0 0 40 c0 39 -1 40 -34 40 l-33 0 -12 -75z"/>
<path d="M11390 6262 c0 -154 49 -415 107 -572 253 -682 867 -1141 1586 -1185
l117 -8 0 40 0 40 -85 2 c-422 9 -850 202 -1161 522 -269 278 -422 598 -478
1002 l-5 37 582 0 583 0 28 -65 c34 -79 100 -166 164 -218 93 -75 226 -127
326 -127 45 0 46 0 46 33 l0 32 -77 13 c-222 35 -388 198 -425 418 l-12 74
-33 0 c-32 0 -33 -1 -33 -40 l0 -40 -574 0 -575 0 -3 38 c-3 35 -5 37 -40 40
l-38 3 0 -39z"/>
<path d="M12904 6259 c21 -130 120 -228 250 -245 l46 -7 0 40 c0 37 -2 39 -32
41 -85 7 -161 73 -183 160 -12 45 -14 47 -50 50 l-38 3 7 -42z"/>
<path d="M6325 5034 c-16 -2 -66 -9 -110 -15 -170 -22 -371 -85 -539 -170
-226 -114 -411 -260 -570 -450 -685 -815 -523 -2029 353 -2640 210 -146 476
-253 751 -300 98 -17 431 -17 535 -1 334 54 639 193 894 408 190 159 336 344
450 570 82 164 143 352 173 539 16 103 16 426 -1 530 -92 576 -447 1072 -953
1330 -186 96 -343 148 -538 181 -83 15 -386 27 -445 18z m494 -104 c347 -70
649 -236 897 -491 269 -278 422 -598 478 -1001 l5 -38 -582 0 -583 0 -27 63
c-72 164 -215 287 -384 331 -77 20 -212 20 -287 1 -158 -41 -299 -158 -370
-307 l-41 -87 -478 -1 -479 0 7 53 c9 73 51 236 80 312 172 458 562 814 1030
941 99 27 280 54 361 54 57 0 80 16 69 49 -3 10 -13 22 -21 25 -24 9 -237 -12
-343 -34 -624 -130 -1126 -641 -1236 -1260 -9 -52 -19 -105 -21 -117 -4 -21
-10 -23 -70 -23 l-65 0 5 33 c46 285 100 448 212 649 284 507 821 846 1389
877 156 8 326 -3 454 -29z m-231 -1205 c254 -60 422 -302 384 -553 -42 -275
-305 -470 -571 -423 -268 48 -453 297 -413 559 44 288 323 482 600 417z m-678
-485 l0 -80 -574 0 -575 0 -3 38 c-2 20 -1 56 1 80 l3 42 574 0 574 0 0 -80z
m2292 43 c2 -21 1 -57 -1 -80 l-3 -43 -574 0 -574 0 0 80 0 80 574 0 575 0 3
-37z m-2248 -268 c70 -161 215 -286 383 -329 77 -20 212 -20 287 -1 164 43
313 171 382 329 l28 66 582 0 582 0 -5 -42 c-37 -315 -170 -630 -370 -878
-219 -271 -530 -479 -859 -575 -276 -81 -625 -88 -897 -20 -527 133 -964 507
-1175 1005 -61 144 -101 292 -126 473 l-5 37 582 0 583 0 28 -65z"/>
<path d="M6374 3510 c-68 -27 -138 -99 -165 -169 -52 -138 16 -303 150 -364
235 -105 481 125 391 366 -24 64 -88 132 -150 160 -65 29 -162 32 -226 7z
m230 -98 c115 -79 115 -264 0 -344 -143 -100 -337 0 -336 174 2 172 194 269
336 170z"/>
<path d="M13045 1793 c-269 -32 -446 -82 -649 -184 -226 -114 -411 -260 -570
-450 -255 -303 -396 -656 -422 -1057 l-7 -102 41 0 42 0 0 40 0 40 575 0 575
0 0 -40 c0 -39 1 -40 34 -40 l33 0 12 75 c35 213 203 381 416 416 l75 12 0 33
c0 33 -1 34 -43 34 -180 0 -384 -140 -471 -322 l-41 -87 -478 -1 -479 0 7 53
c9 73 51 236 80 312 172 458 562 814 1030 941 95 26 279 54 352 54 l43 0 0 40
0 41 -62 -6 c-35 -3 -88 -8 -118 -11 -30 -3 -98 -14 -150 -25 -621 -127 -1125
-641 -1235 -1259 -9 -52 -19 -105 -21 -118 -4 -20 -10 -22 -69 -22 l-65 0 6
42 c61 422 229 758 522 1040 203 196 444 336 708 413 125 36 301 65 400 65
l84 0 0 40 0 40 -62 -1 c-35 -1 -76 -4 -93 -6z"/>
<path d="M0 1753 l0 -40 118 -6 c421 -22 821 -209 1127 -528 131 -138 212
-253 295 -424 95 -194 142 -344 168 -542 l9 -63 -581 0 -582 0 -27 62 c-34 80
-103 171 -164 221 -92 74 -227 127 -322 127 -40 0 -41 -1 -41 -33 l0 -33 74
-12 c104 -18 205 -69 276 -140 82 -82 123 -170 145 -304 5 -35 8 -38 40 -38
33 0 35 2 35 35 l0 35 575 0 575 0 0 -35 c0 -34 1 -35 41 -35 l42 0 -7 113
c-56 889 -791 1620 -1682 1673 l-114 7 0 -40z"/>
<path d="M0 1550 c0 -42 9 -50 30 -25 14 17 5 51 -15 59 -12 4 -15 -4 -15 -34z"/>
<path d="M13094 269 c-93 -35 -184 -156 -184 -244 0 -22 4 -25 39 -25 37 0 39
1 44 41 11 82 85 155 167 166 39 5 40 7 40 44 0 36 -2 39 -27 38 -16 0 -51 -9
-79 -20z"/>
<path d="M2 245 c3 -36 5 -38 50 -50 26 -6 62 -23 81 -38 37 -28 77 -99 77
-135 0 -19 6 -22 40 -22 48 0 50 12 20 93 -35 94 -126 166 -229 183 l-42 7 3
-38z"/>
</g>
</svg>
